<svg width="340" height="345" viewBox="0 0 340 345" fill="none" xmlns="http://www.w3.org/2000/svg">
<path d="M53.6947 124.307C56.9347 121.999 60.372 119.979 63.9907 118.323C73.9947 64.4026 121.241 23.5613 178.056 23.5613C235.115 23.5613 282.512 64.744 292.243 118.995C295.873 120.417 299.357 122.144 302.675 124.137L315.552 115.368L291.407 109.247L309.255 91.8613L284.412 90.0226L298.969 69.8066L274.185 72.308L285.012 49.8706L261.04 56.6413L267.803 32.6626L245.365 43.496L247.864 18.7066L227.655 33.2626L225.808 8.42128L208.432 26.2773L202.309 2.11998L188.288 22.7173L178.056 -7.62939e-06L167.837 22.712L153.812 2.11998L147.692 26.2746L130.311 8.42128L128.471 33.2653L108.256 18.7066L110.76 43.496L88.32 32.6653L95.0867 56.6413L71.116 49.8706L81.9426 72.308L57.152 69.8066L71.7133 90.0226L46.8707 91.864L64.7227 109.247L40.5693 115.375L53.6947 124.307Z" fill="#FFCB05"/>
<path d="M91.3746 112.732C132.383 68.132 203.833 71.1707 240.96 119.445C252.733 114.577 265.429 113.012 278.391 115.168C267.379 69.9853 226.584 36.336 178.056 36.336C130.003 36.336 89.5067 69.3346 78.0373 113.861C82.828 112.937 87.38 112.605 91.3746 112.732Z" fill="#FFCB05"/>
<path d="M336.499 222.407C336.357 222.024 336.196 221.64 336.045 221.256C336.019 221.193 335.992 221.133 335.964 221.072C334.82 218.221 333.375 215.319 331.536 212.348C328.928 208.135 325.249 204.567 321.003 201.616C312.703 195.132 302.263 191.257 290.912 191.257C289.735 191.257 288.571 191.312 287.413 191.395C285.408 191.427 283.504 191.587 281.76 191.888C296.313 183.875 320.991 190.623 323.357 193.835C324.196 189.125 324.444 184.324 324.043 179.317V179.32C320.712 137.66 273.899 112.333 236.856 135.617C228.488 140.876 221.487 148.255 216.752 157.169C189.84 139.127 153.185 155.091 148.089 187.137C147.957 187.979 147.911 188.807 147.821 189.649C143.919 151.86 185.741 127.296 216.752 148.084C220.684 140.675 226.196 134.343 232.74 129.389C217.251 107.784 191.972 93.6801 163.367 93.6801C136.391 93.6801 112.356 106.208 96.7133 125.74C94.4213 125.42 92.0813 125.24 89.7027 125.24C69.6373 125.24 52.4013 137.168 44.5786 154.301C61.692 151.832 78.6693 156.433 91.996 166.308C76.4453 158.936 58.0213 157.945 41.164 164.52C-1.57068 181.165 -13.6227 236.133 18.248 269.069C32.2066 283.477 52.676 291.224 73.9053 288.027C75.3933 269.839 84.984 253.945 99.0786 243.979C88.812 255.221 83.0346 270.044 83.448 285.88C84.4493 326.919 125.152 353.689 161.735 341.492C161.739 341.492 161.741 341.492 161.741 341.492C174.136 337.775 187.741 327.909 195.72 313.66C225.032 335.435 266.66 325.951 283.949 294.352C277.001 292.995 269.484 289.332 263.768 280.904C271.536 286.092 280.869 289.121 290.912 289.121C317.937 289.121 339.845 267.213 339.845 240.189C339.845 233.915 338.651 227.919 336.499 222.407Z" fill="#F5F5F5"/>
</svg>
